<svg width="37" height="31" viewBox="0 0 37 31" fill="none" xmlns="http://www.w3.org/2000/svg">
<path d="M11.2573 0.000183105C8.64086 0.000183105 5.8815 0.928727 3.6938 2.99082C1.5061 5.05291 0 8.3209 0 12.3486C0 17.5822 2.45704 21.8149 5.76057 24.6488C5.19991 25.1432 3.64983 26.7229 3.64983 26.7229C2.97373 27.1872 2.59446 28.0374 2.67141 28.9117C2.74836 29.7859 3.27055 30.5336 4.01811 30.8471C4.76566 31.1607 5.61216 30.9858 6.20031 30.3889C6.20031 30.3889 8.43198 28.1941 9.71822 27.0124C12.4281 28.375 15.2864 29.2915 18.1172 29.3277C18.1337 29.3277 18.1447 29.3277 18.1612 29.3277C18.2052 29.3277 18.2491 29.3277 18.2931 29.3277C18.3646 29.3277 18.4415 29.3277 18.513 29.3277C18.5295 29.3277 18.5405 29.3277 18.557 29.3277C21.3548 29.2734 24.1856 28.3569 26.868 27.0124C28.1542 28.1941 30.3859 30.3889 30.3859 30.3889C30.9741 30.9858 31.8206 31.1607 32.5681 30.8471C33.3157 30.5336 33.8379 29.7859 33.9148 28.9117C33.9918 28.0374 33.6125 27.1872 32.9364 26.7229C32.9364 26.7229 31.3863 25.1432 30.8257 24.6488C34.1292 21.8149 36.5862 17.5822 36.5862 12.3486C36.5862 8.3209 35.0801 5.05291 32.8924 2.99082C30.7047 0.928727 27.9454 0.000183105 25.3289 0.000183105C22.9488 0.000183105 20.5798 0.687547 18.6889 2.21904C18.546 2.3336 18.4305 2.47831 18.2931 2.60493C18.1557 2.47831 18.0403 2.3336 17.8973 2.21904C16.0065 0.687547 13.6374 0.000183105 11.2573 0.000183105ZM11.2573 4.63084C12.8788 4.63084 14.4124 5.13732 15.3908 5.93321C15.5832 6.08998 15.7646 6.24675 15.9185 6.41557C15.6437 7.30191 15.4788 8.24854 15.4788 9.2615C15.4788 10.3348 15.6547 11.3899 15.9625 12.3968C15.6987 12.9696 15.4128 13.5666 15.039 14.1816C13.8408 16.1532 12.1643 18.2394 10.4658 20.1146C9.75669 20.8984 9.7402 20.8261 9.05861 21.5135C8.95417 21.4351 8.81126 21.4049 8.70682 21.3205C5.99143 19.1499 4.22149 16.2256 4.22149 12.3486C4.22149 9.52077 5.15043 7.75413 6.46415 6.51205C7.77787 5.26997 9.59179 4.63084 11.2573 4.63084ZM25.3289 4.63084C26.9944 4.63084 28.8084 5.26997 30.1221 6.51205C31.4358 7.75413 32.3647 9.52077 32.3647 12.3486C32.3647 16.2256 30.5948 19.1499 27.8794 21.3205C27.775 21.4049 27.6321 21.4351 27.5276 21.5135C26.846 20.8261 26.8295 20.8984 26.1205 20.1146C24.422 18.2394 22.7455 16.1532 21.5472 14.1816C21.1734 13.5666 20.8876 12.9696 20.6237 12.3968C20.9315 11.3899 21.1074 10.3348 21.1074 9.2615C21.1074 8.24854 20.9425 7.30191 20.6677 6.41557C20.8216 6.24675 21.003 6.08998 21.1954 5.93321C22.1738 5.13732 23.7074 4.63084 25.3289 4.63084ZM18.2931 17.124C19.6893 19.3428 21.4153 21.5014 23.1302 23.3947C23.3061 23.5876 23.3061 23.5454 23.482 23.7323C21.7945 24.3413 20.0576 24.6789 18.425 24.697C18.3811 24.697 18.3371 24.697 18.2931 24.697C18.2217 24.697 18.1447 24.697 18.0732 24.697C16.4627 24.6669 14.7587 24.3292 13.1042 23.7323C13.2801 23.5454 13.2801 23.5876 13.456 23.3947C15.171 21.5014 16.8969 19.3428 18.2931 17.124Z" fill="#F69A66"/>
</svg>
