<svg xmlns="http://www.w3.org/2000/svg" viewBox="0 0 128 108">
  <g fill="none" fill-rule="evenodd">
    <path fill="#E8A69D" d="M64,93 C93.2710917,93 117,74.8675323 117,52.5 C117,41.3287084 115.596243,28.6788989 106.023983,21.3517872 C96.430346,14.0083117 78.6518706,12 64,12 C48.78353,12 30.3432801,13.5038974 20.6771846,21.3517872 C11.7491406,28.6004542 11,41.7601475 11,52.5 C11,74.8675323 34.7289083,93 64,93 Z"/>
    <path fill="#AE2012" fill-rule="nonzero" d="M118,29.3846423 C118,20.2309395 114.765243,10.5769388 107.581192,2.9230803 C100.397141,-4.73077827 89.0119125,-10 74.9800017,-10 C56.7469137,-10 42.0006739,-1.40383205 32.1278902,10.1538547 C30.4054041,8.192337 24.9018585,2.7692474 24.9018585,2.7692474 C23.2844105,0.4038528 20.3225789,-0.92305623 17.2767167,-0.65383997 C14.2308546,-0.38462371 11.6261352,1.4423034 10.5338291,4.057707 C9.4415231,6.6730756 10.0506899,9.6346295 12.1302765,11.6922883 C12.1302765,11.6922883 19.7764154,19.5000847 23.8935969,23.9999672 C19.1462562,33.4807878 10.1260458,43.0150753 10,52.9188751 C10,52.9766017 10,53.0150862 10,53.0728129 C10,53.2267507 10,53.3803387 10,53.5342765 C10,53.7844255 10,54.0534668 10,54.3036158 C10,54.3613424 10,54.3998269 10,54.4575536 C10.1890687,64.2459 19.2092791,74.6154233 23.8935969,84.0000328 C19.7764154,88.4999153 12.1302765,96.307712 12.1302765,96.307712 C10.0506899,98.36558 9.4415231,101.327134 10.5338291,103.942328 C11.6261352,106.557872 14.2308546,108.384834 17.2767167,108.653875 C20.3225789,108.923266 23.2844105,107.596252 24.9018585,105.230858 C24.9018585,105.230858 30.4054041,99.807698 32.1278902,97.84639 C42.0006739,109.403972 56.7469137,118 74.9800017,118 C89.0119125,118 100.397141,112.730778 107.581192,105.07692 C114.765243,97.423061 118,87.7694103 118,78.6153577 C118,70.288371 115.6052,62.0002187 110.269681,55.3847407 C109.87078,54.8847926 109.366666,54.4807058 108.925611,54 C109.366666,53.5192942 109.87078,53.1155572 110.269681,52.6152593 C115.6052,46.0001312 118,37.711629 118,29.3846423 Z M102,29.5692841 C102,35.2316164 100.230269,40.5869989 97.448815,44.0036045 C96.9008415,44.6754717 96.3528681,45.3089266 95.7629579,45.8463505 C92.6655799,44.8867397 89.3571204,44.3109034 85.8173098,44.3109034 C82.0664176,44.3109034 78.3791295,44.9251521 74.8599378,46 C72.8581573,45.0788016 70.7721538,44.0804292 68.6228957,42.7751071 C61.7326888,38.5909526 54.441986,32.7365584 47.888671,26.8053396 C45.1491532,24.3291386 45.4021716,24.2715201 43,21.8913501 C43.2739168,21.5267818 43.3792829,21.0277702 43.6743079,20.6628527 C51.2600356,11.1806897 61.4796705,5 75.0287332,5 C84.9111267,5 91.0852637,8.2438896 95.4257166,12.8316184 C99.766519,17.4191028 102,23.7533023 102,29.5692841 Z M102,78.4307299 C102,84.2467166 99.766519,90.581271 95.4257166,95.168759 C91.0852637,99.756247 84.9111267,103 75.0287332,103 C61.4796705,103 51.2600356,96.819445 43.6743079,87.3371689 C43.3792829,86.9726003 43.2739168,86.4735883 43,86.1086705 C45.4021716,83.7284984 45.1491532,83.6708798 47.888671,81.195026 C54.441986,75.2638021 61.7326888,69.4094029 68.6228957,65.2248957 C70.7721538,63.9195724 72.8581573,62.9215484 74.8599378,62 C78.3791295,63.0748488 82.0664176,63.689098 85.8173098,63.689098 C89.3571204,63.689098 92.6655799,63.1132612 95.7629579,62.1536496 C96.3528681,62.691074 96.9008415,63.3245294 97.448815,63.9963972 C100.230269,67.4130057 102,72.7683928 102,78.4307299 Z M58,54 C50.3823559,58.8433387 42.9713576,64.8307348 36.4713662,70.7796257 C35.8089251,71.3898129 35.9538416,71.3898129 35.3121028,72 C33.2213705,66.1461581 26.2535774,59.956584 26.1914703,54.2931871 C26.1914703,54.1409005 26.1914703,53.988267 26.1914703,53.8356335 C26.1914703,53.5879509 26.1914703,53.3208423 26.1914703,53.0728129 C26.2949821,47.4860796 33.2627409,41.7393667 35.3121028,36 C35.9538416,36.6101871 35.8089251,36.6101871 36.4713662,37.2203743 C42.9713576,43.1696121 50.3823559,49.1566613 58,54 Z" transform="rotate(-90 64 54)"/>
  </g>
</svg>
