<svg xmlns="http://www.w3.org/2000/svg" viewBox="0 0 128 128">
  <path fill="#F69A66" d="M118,39.3846423 C118,30.2309395 114.765243,20.5769388 107.581192,12.9230803 C100.397141,5.26922173 89.0119125,1.42108547e-14 74.9800017,1.42108547e-14 C56.7469137,1.42108547e-14 42.0006739,8.59616795 32.1278902,20.1538547 C30.4054041,18.192337 24.9018585,12.7692474 24.9018585,12.7692474 C23.2844105,10.4038528 20.3225789,9.07694377 17.2767167,9.34616003 C14.2308546,9.61537629 11.6261352,11.4423034 10.5338291,14.057707 C9.44152308,16.6730756 10.0506899,19.6346295 12.1302765,21.6922883 C12.1302765,21.6922883 19.7764154,29.5000847 23.8935969,33.9999672 C19.1462562,43.4807878 15.9533407,53.4807988 15.8272949,63.3845986 C15.8272949,63.4423252 15.8272949,63.4808097 15.8272949,63.5385364 C15.8272949,63.6924742 15.8272949,63.8460622 15.8272949,64 C15.8272949,64.250149 15.8272949,64.5191903 15.8272949,64.7693393 C15.8272949,64.8270659 15.8272949,64.8655504 15.8272949,64.9232771 C16.0163636,74.7116235 19.2092791,84.6154233 23.8935969,94.0000328 C19.7764154,98.4999153 12.1302765,106.307712 12.1302765,106.307712 C10.0506899,108.36558 9.44152308,111.327134 10.5338291,113.942328 C11.6261352,116.557872 14.2308546,118.384834 17.2767167,118.653875 C20.3225789,118.923266 23.2844105,117.596252 24.9018585,115.230858 C24.9018585,115.230858 30.4054041,109.807698 32.1278902,107.84639 C42.0006739,119.403972 56.7469137,128 74.9800017,128 C89.0119125,128 100.397141,122.730778 107.581192,115.07692 C114.765243,107.423061 118,97.7694103 118,88.6153577 C118,80.288371 115.6052,72.0002187 110.269681,65.3847407 C109.87078,64.8847926 109.366666,64.4807058 108.925611,64 C109.366666,63.5192942 109.87078,63.1155572 110.269681,62.6152593 C115.6052,56.0001312 118,47.711629 118,39.3846423 Z M102,39.5692841 C102,45.2316164 100.230269,50.5869989 97.448815,54.0036045 C96.9008415,54.6754717 96.3528681,55.3089266 95.7629579,55.8463505 C92.6655799,54.8867397 89.3571204,54.3109034 85.8173098,54.3109034 C82.0664176,54.3109034 78.3791295,54.9251521 74.8599378,56 C72.8581573,55.0788016 70.7721538,54.0804292 68.6228957,52.7751071 C61.7326888,48.5909526 54.441986,42.7365584 47.888671,36.8053396 C45.1491532,34.3291386 45.4021716,34.2715201 43,31.8913501 C43.2739168,31.5267818 43.3792829,31.0277702 43.6743079,30.6628527 C51.2600356,21.1806897 61.4796705,15 75.0287332,15 C84.9111267,15 91.0852637,18.2438896 95.4257166,22.8316184 C99.766519,27.4191028 102,33.7533023 102,39.5692841 Z M102,88.4307299 C102,94.2467166 99.766519,100.581271 95.4257166,105.168759 C91.0852637,109.756247 84.9111267,113 75.0287332,113 C61.4796705,113 51.2600356,106.819445 43.6743079,97.3371689 C43.3792829,96.9726003 43.2739168,96.4735883 43,96.1086705 C45.4021716,93.7284984 45.1491532,93.6708798 47.888671,91.195026 C54.441986,85.2638021 61.7326888,79.4094029 68.6228957,75.2248957 C70.7721538,73.9195724 72.8581573,72.9215484 74.8599378,72 C78.3791295,73.0748488 82.0664176,73.689098 85.8173098,73.689098 C89.3571204,73.689098 92.6655799,73.1132612 95.7629579,72.1536496 C96.3528681,72.691074 96.9008415,73.3245294 97.448815,73.9963972 C100.230269,77.4130057 102,82.7683928 102,88.4307299 Z M58,64 C50.3823559,68.8433387 42.9713576,74.8307348 36.4713662,80.7796257 C35.8089251,81.3898129 35.9538416,81.3898129 35.3121028,82 C33.2213705,76.1461581 32.0621071,70.1209505 32,64.4575536 C32,64.305267 32,64.1526335 32,64 C32,63.7523174 32,63.4852088 32,63.2371794 C32.1035118,57.6504461 33.2627409,51.7393667 35.3121028,46 C35.9538416,46.6101871 35.8089251,46.6101871 36.4713662,47.2203743 C42.9713576,53.1696121 50.3823559,59.1566613 58,64 Z" transform="rotate(-90 64 64)"/>
</svg>
